# xmcd
#
# Track frame offsets:
#	150
#	15267
#	29536
#	41738
#	56726
#	69018
#	82247
#	90981
#	99822
#	111274
#	125644
#	133017
#	153836
#	167880
#	174038
#	199838
#	208020
#	221913
#	234154
#	246892
#
# Disc length: 3399 seconds
#
# Revision: 0
# Processed by: cddbd v1.5.2PL0 Copyright (c) Steve Scherf et al.
# Submitted via: EZCDAudioConverter 7.1.2.1
#
DISCID=090d4514
DTITLE=Blind Willie McTell - 1927-1940
DYEAR=1900
DGENRE=Blues
TTITLE0=Ticket Agent Blues
TTITLE1=Cold Winter Day
TTITLE2=Your Time To Worry
TTITLE3=Cooling Board Blues
TTITLE4=Hillbilly Board Blues
TTITLE5=Just A Well Get Ready/You Got To Die/Climbing High Mountain/Tryin' To 
TTITLE5=Get Home
TTITLE6=Monologue On Accidents
TTITLE7=Boll Weevil
TTITLE8=Delia
TTITLE9=Dying Crapshooter's Blues
TTITLE10=Will Fox
TTITLE11=I Got To Cross The River Jordan
TTITLE12=Monologue On Old Songs/Old Time Religion/Amen
TTITLE13=Amazing Grace
TTITLE14=Monologue On The History Of The Blues/Life As A Maker Of Records/On H
TTITLE14=imself
TTITLE15=King Edward Blues
TTITLE16=Murderer's Home Blues
TTITLE17=Kill-it-kid Rag
TTITLE18=Chainey
TTITLE19=I Got To Cross The River Of Jordan
EXTD=
EXTT0=
EXTT1=
EXTT2=
EXTT3=
EXTT4=
EXTT5=
EXTT6=
EXTT7=
EXTT8=
EXTT9=
EXTT10=
EXTT11=
EXTT12=
EXTT13=
EXTT14=
EXTT15=
EXTT16=
EXTT17=
EXTT18=
EXTT19=
PLAYORDER=
